# xmcd
#
# Track frame offsets: 
#        150
#        14330
#        29170
#        44102
#        62597
#        83805
#        107372
#        136032
#        164622
#
# Disc length: 2477 seconds
#
# Revision: 2
# Processed by: cddbd v1.5.2PL0 Copyright (c) Steve Scherf et al.
# Submitted via: ExactAudioCopy v1.0b3
#
DISCID=7409ab09
DTITLE=木村充揮+有山じゅんじ - 木村くんと有山くん
DYEAR=1998
DGENRE=Blues
TTITLE0=あなたも私もブルースが好き
TTITLE1=陽よ,昇れ(Let?s it Shine On)
TTITLE2=オッチロリン
TTITLE3=秋の空
TTITLE4=君の瞳
TTITLE5=La Cana
TTITLE6=ビビッテ・バビッテ・ブー
TTITLE7=過ぎたるは及ばざるが如し
TTITLE8=Someday My Prince Will Come
EXTD=YEAR: 1998
EXTT0=
EXTT1=
EXTT2=
EXTT3=
EXTT4=
EXTT5=
EXTT6=
EXTT7=
EXTT8=
PLAYORDER=
